<mxGraphModel dx="1299" dy="659" grid="0" gridSize="10" guides="1" tooltips="1" connect="1" arrows="1" fold="1" page="1" pageScale="1" pageWidth="3300" pageHeight="2339" math="0" shadow="0">
  <root>
    <mxCell id="0" />
    <mxCell id="1" parent="0" />
    <mxCell id="_tbVv9WatnF9Mb6ujoCf-3" value="" style="endArrow=none;dashed=1;html=1;strokeWidth=2;rounded=0;entryX=0.5;entryY=1;entryDx=0;entryDy=0;" edge="1" parent="1" target="ll_visitor">
      <mxGeometry width="50" height="50" relative="1" as="geometry">
        <mxPoint x="160" y="1670" as="sourcePoint" />
        <mxPoint x="600" y="470" as="targetPoint" />
      </mxGeometry>
    </mxCell>
    <mxCell id="_tbVv9WatnF9Mb6ujoCf-4" value="" style="endArrow=none;dashed=1;html=1;strokeWidth=2;rounded=0;entryX=0.5;entryY=1;entryDx=0;entryDy=0;" edge="1" parent="1">
      <mxGeometry width="50" height="50" relative="1" as="geometry">
        <mxPoint x="395" y="1670" as="sourcePoint" />
        <mxPoint x="395" y="110" as="targetPoint" />
      </mxGeometry>
    </mxCell>
    <mxCell id="_tbVv9WatnF9Mb6ujoCf-5" value="" style="endArrow=none;dashed=1;html=1;strokeWidth=2;rounded=0;entryX=0.5;entryY=1;entryDx=0;entryDy=0;" edge="1" parent="1">
      <mxGeometry width="50" height="50" relative="1" as="geometry">
        <mxPoint x="640" y="1660" as="sourcePoint" />
        <mxPoint x="640" y="100" as="targetPoint" />
      </mxGeometry>
    </mxCell>
    <mxCell id="_tbVv9WatnF9Mb6ujoCf-6" value="" style="endArrow=none;dashed=1;html=1;strokeWidth=2;rounded=0;entryX=0.5;entryY=1;entryDx=0;entryDy=0;" edge="1" parent="1">
      <mxGeometry width="50" height="50" relative="1" as="geometry">
        <mxPoint x="878.57" y="1670" as="sourcePoint" />
        <mxPoint x="878.57" y="110" as="targetPoint" />
      </mxGeometry>
    </mxCell>
    <mxCell id="_tbVv9WatnF9Mb6ujoCf-7" value="" style="endArrow=none;dashed=1;html=1;strokeWidth=2;rounded=0;entryX=0.5;entryY=1;entryDx=0;entryDy=0;" edge="1" parent="1">
      <mxGeometry width="50" height="50" relative="1" as="geometry">
        <mxPoint x="1160" y="1660" as="sourcePoint" />
        <mxPoint x="1160" y="100" as="targetPoint" />
      </mxGeometry>
    </mxCell>
    <mxCell id="_tbVv9WatnF9Mb6ujoCf-8" value="" style="endArrow=none;dashed=1;html=1;strokeWidth=2;rounded=0;entryX=0.5;entryY=1;entryDx=0;entryDy=0;" edge="1" parent="1">
      <mxGeometry width="50" height="50" relative="1" as="geometry">
        <mxPoint x="1405" y="1670" as="sourcePoint" />
        <mxPoint x="1405" y="110" as="targetPoint" />
      </mxGeometry>
    </mxCell>
    <mxCell id="_tbVv9WatnF9Mb6ujoCf-9" value="" style="endArrow=none;dashed=1;html=1;strokeWidth=2;rounded=0;entryX=0.5;entryY=1;entryDx=0;entryDy=0;" edge="1" parent="1">
      <mxGeometry width="50" height="50" relative="1" as="geometry">
        <mxPoint x="1635" y="1670" as="sourcePoint" />
        <mxPoint x="1635" y="110" as="targetPoint" />
      </mxGeometry>
    </mxCell>
    <mxCell id="title" value="UML Sequence Diagram â€” Wikipedia-type site: Browse &amp; Search" style="text;html=1;strokeColor=none;fillColor=none;fontSize=18;fontStyle=1;align=center" parent="1" vertex="1">
      <mxGeometry x="100" y="20" width="1600" height="30" as="geometry" />
    </mxCell>
    <mxCell id="ll_visitor" value="Visitor (Actor)" style="rounded=1;whiteSpace=wrap;html=1;align=center;verticalAlign=middle;strokeColor=#000000;fillColor=#dae8fc" parent="1" vertex="1">
      <mxGeometry x="100" y="70" width="120" height="40" as="geometry" />
    </mxCell>
    <mxCell id="ll_ui" value="Web UI / Browser" style="rounded=1;whiteSpace=wrap;html=1;align=center;verticalAlign=middle;strokeColor=#000000;fillColor=#dae8fc" parent="1" vertex="1">
      <mxGeometry x="320" y="70" width="150" height="40" as="geometry" />
    </mxCell>
    <mxCell id="ll_content" value="ContentService" style="rounded=1;whiteSpace=wrap;html=1;align=center;verticalAlign=middle;strokeColor=#000000;fillColor=#ffe6cc" parent="1" vertex="1">
      <mxGeometry x="560" y="70" width="150" height="40" as="geometry" />
    </mxCell>
    <mxCell id="ll_repo" value="ArticleRepository" style="rounded=1;whiteSpace=wrap;html=1;align=center;verticalAlign=middle;strokeColor=#000000;fillColor=#fff2cc" parent="1" vertex="1">
      <mxGeometry x="800" y="70" width="160" height="40" as="geometry" />
    </mxCell>
    <mxCell id="ll_reco" value="RecommendationService" style="rounded=1;whiteSpace=wrap;html=1;align=center;verticalAlign=middle;strokeColor=#000000;fillColor=#fff2cc" parent="1" vertex="1">
      <mxGeometry x="1060" y="70" width="190" height="40" as="geometry" />
    </mxCell>
    <mxCell id="ll_search" value="SearchService" style="rounded=1;whiteSpace=wrap;html=1;align=center;verticalAlign=middle;strokeColor=#000000;fillColor=#ffe6cc" parent="1" vertex="1">
      <mxGeometry x="1320" y="70" width="150" height="40" as="geometry" />
    </mxCell>
    <mxCell id="ll_index" value="SearchIndex" style="rounded=1;whiteSpace=wrap;html=1;align=center;verticalAlign=middle;strokeColor=#000000;fillColor=#fff2cc" parent="1" vertex="1">
      <mxGeometry x="1560" y="70" width="150" height="40" as="geometry" />
    </mxCell>
    <mxCell id="line_visitor" style="shape=line;dashed=1;dashPattern=8 8;strokeWidth=2;strokeColor=#000000;endArrow=none" parent="1" vertex="1">
      <mxGeometry x="160" y="110" height="1400" as="geometry" />
    </mxCell>
    <mxCell id="line_ui" style="shape=line;dashed=1;dashPattern=8 8;strokeWidth=2;strokeColor=#000000;endArrow=none" parent="1" vertex="1">
      <mxGeometry x="395" y="110" height="1400" as="geometry" />
    </mxCell>
    <mxCell id="line_content" style="shape=line;dashed=1;dashPattern=8 8;strokeWidth=2;strokeColor=#000000;endArrow=none" parent="1" vertex="1">
      <mxGeometry x="635" y="110" height="1400" as="geometry" />
    </mxCell>
    <mxCell id="line_repo" style="shape=line;dashed=1;dashPattern=8 8;strokeWidth=2;strokeColor=#000000;endArrow=none" parent="1" vertex="1">
      <mxGeometry x="880" y="110" height="1400" as="geometry" />
    </mxCell>
    <mxCell id="line_reco" style="shape=line;dashed=1;dashPattern=8 8;strokeWidth=2;strokeColor=#000000;endArrow=none" parent="1" vertex="1">
      <mxGeometry x="1155" y="110" height="1400" as="geometry" />
    </mxCell>
    <mxCell id="line_search" style="shape=line;dashed=1;dashPattern=8 8;strokeWidth=2;strokeColor=#000000;endArrow=none" parent="1" vertex="1">
      <mxGeometry x="1395" y="110" height="1400" as="geometry" />
    </mxCell>
    <mxCell id="line_index" style="shape=line;dashed=1;dashPattern=8 8;strokeWidth=2;strokeColor=#000000;endArrow=none" parent="1" vertex="1">
      <mxGeometry x="1635" y="110" height="1400" as="geometry" />
    </mxCell>
    <mxCell id="label_browse" value="Scenario 1: Browse content to discover new pages" style="text;html=1;strokeColor=none;fillColor=none;fontSize=14;fontStyle=1" parent="1" vertex="1">
      <mxGeometry x="100" y="120" width="700" height="20" as="geometry" />
    </mxCell>
    <mxCell id="label_search" value="Scenario 2: Search by query to find specific content" style="text;html=1;strokeColor=none;fillColor=none;fontSize=14;fontStyle=1" parent="1" vertex="1">
      <mxGeometry x="100" y="880" width="760" height="20" as="geometry" />
    </mxCell>
    <mxCell id="act_ui_1" style="rounded=0;whiteSpace=wrap;html=1;strokeColor=#000000;fillColor=#cce5ff" parent="1" vertex="1">
      <mxGeometry x="385" y="160" width="20" height="160" as="geometry" />
    </mxCell>
    <mxCell id="act_content_1" style="rounded=0;whiteSpace=wrap;html=1;strokeColor=#000000;fillColor=#ffe0cc" parent="1" vertex="1">
      <mxGeometry x="625" y="200" width="20" height="180" as="geometry" />
    </mxCell>
    <mxCell id="act_repo_1" style="rounded=0;whiteSpace=wrap;html=1;strokeColor=#000000;fillColor=#fff0cc" parent="1" vertex="1">
      <mxGeometry x="870" y="240" width="20" height="100" as="geometry" />
    </mxCell>
    <mxCell id="m1" value="openHome()" style="edgeStyle=orthogonalEdgeStyle;endArrow=block;endFill=1;strokeColor=#000000" parent="1" source="ll_visitor" target="ll_ui" edge="1">
      <mxGeometry relative="1" as="geometry">
        <mxPoint x="160" y="160" as="sourcePoint" />
        <mxPoint x="395" y="160" as="targetPoint" />
      </mxGeometry>
    </mxCell>
    <mxCell id="m2" value="getHomeFeed()" style="edgeStyle=orthogonalEdgeStyle;endArrow=block;endFill=1;strokeColor=#000000" parent="1" edge="1">
      <mxGeometry relative="1" as="geometry">
        <mxPoint x="395" y="200" as="sourcePoint" />
        <mxPoint x="635" y="200" as="targetPoint" />
      </mxGeometry>
    </mxCell>
    <mxCell id="m3" value="fetchFeatured()" style="edgeStyle=orthogonalEdgeStyle;endArrow=block;endFill=1;strokeColor=#000000" parent="1" edge="1">
      <mxGeometry relative="1" as="geometry">
        <mxPoint x="635" y="240" as="sourcePoint" />
        <mxPoint x="880" y="240" as="targetPoint" />
      </mxGeometry>
    </mxCell>
    <mxCell id="m4" value="featuredArticles" style="dashed=1;endArrow=open;endFill=0;strokeColor=#000000" parent="1" edge="1">
      <mxGeometry relative="1" as="geometry">
        <mxPoint x="880" y="300" as="sourcePoint" />
        <mxPoint x="635" y="300" as="targetPoint" />
      </mxGeometry>
    </mxCell>
    <mxCell id="m5" value="homeFeed" style="dashed=1;endArrow=open;endFill=0;strokeColor=#000000" parent="1" edge="1">
      <mxGeometry relative="1" as="geometry">
        <mxPoint x="635" y="360" as="sourcePoint" />
        <mxPoint x="395" y="360" as="targetPoint" />
      </mxGeometry>
    </mxCell>
    <mxCell id="frag_loop" value="loop: user follows links / scrolls" style="swimlane;childLayout=stackLayout;horizontal=1;rounded=0;strokeColor=#000000;dashed=1;fillColor=none;fontStyle=1;startSize=30" parent="1" vertex="1">
      <mxGeometry x="120" y="410" width="1590" height="350" as="geometry" />
    </mxCell>
    <mxCell id="frag_loop_note" value="*[more articles]" style="text;html=1;strokeColor=none;fillColor=none;fontSize=11" parent="frag_loop" vertex="1">
      <mxGeometry y="30" width="150" height="320" as="geometry" />
    </mxCell>
    <mxCell id="m6" value="clickLink(articleId)" style="edgeStyle=orthogonalEdgeStyle;endArrow=block;endFill=1;strokeColor=#000000" parent="frag_loop" edge="1">
      <mxGeometry relative="1" as="geometry">
        <mxPoint x="40" y="70" as="sourcePoint" />
        <mxPoint x="275" y="70" as="targetPoint" />
      </mxGeometry>
    </mxCell>
    <mxCell id="m7" value="getArticle(articleId)" style="edgeStyle=orthogonalEdgeStyle;endArrow=block;endFill=1;strokeColor=#000000" parent="frag_loop" edge="1">
      <mxGeometry relative="1" as="geometry">
        <mxPoint x="275" y="100" as="sourcePoint" />
        <mxPoint x="515" y="100" as="targetPoint" />
      </mxGeometry>
    </mxCell>
    <mxCell id="m8" value="findById(articleId)" style="edgeStyle=orthogonalEdgeStyle;endArrow=block;endFill=1;strokeColor=#000000" parent="frag_loop" edge="1">
      <mxGeometry relative="1" as="geometry">
        <mxPoint x="515" y="130" as="sourcePoint" />
        <mxPoint x="760" y="130" as="targetPoint" />
      </mxGeometry>
    </mxCell>
    <mxCell id="m9" value="Article" style="dashed=1;endArrow=open;endFill=0;strokeColor=#000000" parent="frag_loop" edge="1">
      <mxGeometry relative="1" as="geometry">
        <mxPoint x="760" y="170" as="sourcePoint" />
        <mxPoint x="515" y="170" as="targetPoint" />
      </mxGeometry>
    </mxCell>
    <mxCell id="m10" value="getRelated(articleId)" style="edgeStyle=orthogonalEdgeStyle;endArrow=block;endFill=1;strokeColor=#000000" parent="frag_loop" edge="1">
      <mxGeometry relative="1" as="geometry">
        <mxPoint x="515" y="200" as="sourcePoint" />
        <mxPoint x="752" y="196" as="targetPoint" />
      </mxGeometry>
    </mxCell>
    <mxCell id="m11" value="Related[]" style="dashed=1;endArrow=open;endFill=0;strokeColor=#000000" parent="frag_loop" edge="1">
      <mxGeometry relative="1" as="geometry">
        <mxPoint x="790" y="240" as="sourcePoint" />
        <mxPoint x="515" y="240" as="targetPoint" />
      </mxGeometry>
    </mxCell>
    <mxCell id="m12" value="renderArticle + related" style="dashed=1;endArrow=open;endFill=0;strokeColor=#000000" parent="frag_loop" edge="1">
      <mxGeometry relative="1" as="geometry">
        <mxPoint x="515" y="280" as="sourcePoint" />
        <mxPoint x="275" y="280" as="targetPoint" />
      </mxGeometry>
    </mxCell>
    <mxCell id="frag_opt_scroll" value="opt: user scrolls for more" style="swimlane;childLayout=stackLayout;horizontal=1;rounded=0;strokeColor=#000000;dashed=1;fillColor=none;fontStyle=1;startSize=24" parent="1" vertex="1">
      <mxGeometry x="120" y="770" width="940" height="90" as="geometry" />
    </mxCell>
    <mxCell id="m13" value="getMore()" style="edgeStyle=orthogonalEdgeStyle;endArrow=block;endFill=1;strokeColor=#000000" parent="frag_opt_scroll" edge="1">
      <mxGeometry relative="1" as="geometry">
        <mxPoint x="275" y="40" as="sourcePoint" />
        <mxPoint x="515" y="40" as="targetPoint" />
      </mxGeometry>
    </mxCell>
    <mxCell id="m14" value="fetchNextPage()" style="edgeStyle=orthogonalEdgeStyle;endArrow=block;endFill=1;strokeColor=#000000" parent="frag_opt_scroll" edge="1">
      <mxGeometry relative="1" as="geometry">
        <mxPoint x="515" y="60" as="sourcePoint" />
        <mxPoint x="760" y="60" as="targetPoint" />
      </mxGeometry>
    </mxCell>
    <mxCell id="m15" value="Articles[]" style="dashed=1;endArrow=open;endFill=0;strokeColor=#000000" parent="frag_opt_scroll" edge="1">
      <mxGeometry relative="1" as="geometry">
        <mxPoint x="760" y="70" as="sourcePoint" />
        <mxPoint x="275" y="70" as="targetPoint" />
      </mxGeometry>
    </mxCell>
    <mxCell id="act_ui_2" style="rounded=0;whiteSpace=wrap;html=1;strokeColor=#000000;fillColor=#cce5ff" parent="1" vertex="1">
      <mxGeometry x="385" y="920" width="20" height="210" as="geometry" />
    </mxCell>
    <mxCell id="act_search_1" style="rounded=0;whiteSpace=wrap;html=1;strokeColor=#000000;fillColor=#ffe0cc" parent="1" vertex="1">
      <mxGeometry x="1385" y="970" width="20" height="140" as="geometry" />
    </mxCell>
    <mxCell id="act_index_1" style="rounded=0;whiteSpace=wrap;html=1;strokeColor=#000000;fillColor=#fff0cc" parent="1" vertex="1">
      <mxGeometry x="1625" y="1000" width="20" height="80" as="geometry" />
    </mxCell>
    <mxCell id="s1" value="enterQuery(q)" style="edgeStyle=orthogonalEdgeStyle;endArrow=block;endFill=1;strokeColor=#000000;entryX=0.184;entryY=0.323;entryDx=0;entryDy=0;entryPerimeter=0;" parent="1" target="act_ui_2" edge="1">
      <mxGeometry relative="1" as="geometry">
        <mxPoint x="163" y="988.7273615056819" as="sourcePoint" />
        <mxPoint x="382" y="965" as="targetPoint" />
      </mxGeometry>
    </mxCell>
    <mxCell id="s2" value="search(q)" style="edgeStyle=orthogonalEdgeStyle;endArrow=block;endFill=1;strokeColor=#000000" parent="1" edge="1">
      <mxGeometry relative="1" as="geometry">
        <mxPoint x="395" y="970" as="sourcePoint" />
        <mxPoint x="1395" y="970" as="targetPoint" />
      </mxGeometry>
    </mxCell>
    <mxCell id="s3" value="query(q)" style="edgeStyle=orthogonalEdgeStyle;endArrow=block;endFill=1;strokeColor=#000000" parent="1" edge="1">
      <mxGeometry relative="1" as="geometry">
        <mxPoint x="1395" y="1000" as="sourcePoint" />
        <mxPoint x="1635" y="1000" as="targetPoint" />
      </mxGeometry>
    </mxCell>
    <mxCell id="s4" value="results[]" style="dashed=1;endArrow=open;endFill=0;strokeColor=#000000" parent="1" edge="1">
      <mxGeometry relative="1" as="geometry">
        <mxPoint x="1635" y="1040" as="sourcePoint" />
        <mxPoint x="1395" y="1040" as="targetPoint" />
      </mxGeometry>
    </mxCell>
    <mxCell id="s5" value="results[]" style="dashed=1;endArrow=open;endFill=0;strokeColor=#000000" parent="1" edge="1">
      <mxGeometry relative="1" as="geometry">
        <mxPoint x="1395" y="1090" as="sourcePoint" />
        <mxPoint x="395" y="1090" as="targetPoint" />
      </mxGeometry>
    </mxCell>
    <mxCell id="frag_alt" value="alt" style="swimlane;childLayout=stackLayout;horizontal=1;rounded=0;strokeColor=#000000;dashed=1;fillColor=none;fontStyle=1;startSize=24" parent="1" vertex="1">
      <mxGeometry x="120" y="1140" width="1680" height="300" as="geometry" />
    </mxCell>
    <mxCell id="alt_op1_label" value="[user selects a result]" style="text;html=1;strokeColor=none;fillColor=none;fontSize=12" parent="frag_alt" vertex="1">
      <mxGeometry y="24" width="300" height="276" as="geometry" />
    </mxCell>
    <mxCell id="a1" value="clickResult(articleId)" style="edgeStyle=orthogonalEdgeStyle;endArrow=block;endFill=1;strokeColor=#000000" parent="frag_alt" edge="1">
      <mxGeometry relative="1" as="geometry">
        <mxPoint x="40" y="70" as="sourcePoint" />
        <mxPoint x="275" y="70" as="targetPoint" />
      </mxGeometry>
    </mxCell>
    <mxCell id="a2" value="getArticle(articleId)" style="edgeStyle=orthogonalEdgeStyle;endArrow=block;endFill=1;strokeColor=#000000" parent="frag_alt" edge="1">
      <mxGeometry relative="1" as="geometry">
        <mxPoint x="275" y="100" as="sourcePoint" />
        <mxPoint x="515" y="100" as="targetPoint" />
      </mxGeometry>
    </mxCell>
    <mxCell id="a3" value="findById(articleId)" style="edgeStyle=orthogonalEdgeStyle;endArrow=block;endFill=1;strokeColor=#000000" parent="frag_alt" edge="1">
      <mxGeometry relative="1" as="geometry">
        <mxPoint x="515" y="130" as="sourcePoint" />
        <mxPoint x="760" y="130" as="targetPoint" />
      </mxGeometry>
    </mxCell>
    <mxCell id="a4" value="Article" style="dashed=1;endArrow=open;endFill=0;strokeColor=#000000" parent="frag_alt" edge="1">
      <mxGeometry relative="1" as="geometry">
        <mxPoint x="760" y="160" as="sourcePoint" />
        <mxPoint x="275" y="160" as="targetPoint" />
      </mxGeometry>
    </mxCell>
    <mxCell id="a5" value="renderArticle" style="dashed=1;endArrow=open;endFill=0;strokeColor=#000000" parent="frag_alt" edge="1">
      <mxGeometry relative="1" as="geometry">
        <mxPoint x="275" y="190" as="sourcePoint" />
        <mxPoint x="160" y="190" as="targetPoint" />
      </mxGeometry>
    </mxCell>
    <mxCell id="alt_divider" style="shape=line;strokeWidth=1;strokeColor=#000000" parent="frag_alt" vertex="1">
      <mxGeometry x="300" y="24" height="276" as="geometry" />
    </mxCell>
    <mxCell id="b4" value="results[]" style="dashed=1;endArrow=open;endFill=0;strokeColor=#000000" parent="frag_alt" edge="1">
      <mxGeometry relative="1" as="geometry">
        <mxPoint x="1635" y="160" as="sourcePoint" />
        <mxPoint x="1135" y="160" as="targetPoint" />
      </mxGeometry>
    </mxCell>
    <mxCell id="b5" value="displayResults" style="dashed=1;endArrow=open;endFill=0;strokeColor=#000000" parent="frag_alt" edge="1">
      <mxGeometry relative="1" as="geometry">
        <mxPoint x="1135" y="190" as="sourcePoint" />
        <mxPoint x="160" y="190" as="targetPoint" />
      </mxGeometry>
    </mxCell>
    <mxCell id="alt_op2_label" value="[user refines query]" style="text;html=1;strokeColor=none;fillColor=none;fontSize=12" parent="frag_alt" vertex="1">
      <mxGeometry x="300" y="24" width="300" height="276" as="geometry" />
    </mxCell>
    <mxCell id="b3" value="query(qâ€²)" style="edgeStyle=orthogonalEdgeStyle;endArrow=block;endFill=1;strokeColor=#000000" parent="frag_alt" edge="1">
      <mxGeometry relative="1" as="geometry">
        <mxPoint x="1290" y="130" as="sourcePoint" />
        <mxPoint x="1530" y="130" as="targetPoint" />
      </mxGeometry>
    </mxCell>
    <mxCell id="b2" value="search(qâ€²)" style="edgeStyle=orthogonalEdgeStyle;endArrow=block;endFill=1;strokeColor=#000000" parent="frag_alt" edge="1">
      <mxGeometry relative="1" as="geometry">
        <mxPoint x="1030" y="90" as="sourcePoint" />
        <mxPoint x="1290" y="90" as="targetPoint" />
      </mxGeometry>
    </mxCell>
    <mxCell id="b1" value="refineQuery(qâ€²)" style="edgeStyle=orthogonalEdgeStyle;endArrow=block;endFill=1;strokeColor=#000000" parent="frag_alt" edge="1">
      <mxGeometry relative="1" as="geometry">
        <mxPoint x="760" y="70" as="sourcePoint" />
        <mxPoint x="1040" y="70" as="targetPoint" />
      </mxGeometry>
    </mxCell>
    <mxCell id="note1" value="Notes:&#xa;â€¢ Web UI represents the browser + frontend.&#xa;â€¢ Services encapsulate business logic; Repository/Index handle data.&#xa;â€¢ Related articles support discovery during browsing." style="shape=note;whiteSpace=wrap;html=1;size=14;fillColor=#ffffcc;strokeColor=#000000" parent="1" vertex="1">
      <mxGeometry x="1780" y="120" width="420" height="180" as="geometry" />
    </mxCell>
  </root>
</mxGraphModel>